<?xml version="1.0" standalone="no"?>
<!DOCTYPE svg PUBLIC "-//W3C//DTD SVG 20010904//EN"
 "http://www.w3.org/TR/2001/REC-SVG-20010904/DTD/svg10.dtd">
<svg version="1.0" xmlns="http://www.w3.org/2000/svg"
 width="32" height="16" viewBox="0 0 1280.000000 640.000000"
 preserveAspectRatio="xMidYMid meet">
<g transform="translate(0.000000,640.000000) scale(0.100000,-0.100000)"
fill="#000000" stroke="none">
<path d="M12479 5759 c-574 -478 -1030 -828 -1659 -1269 -296 -208 -720 -491
-728 -487 -4 3 -95 56 -202 119 -1529 900 -2858 1438 -3955 1603 -294 44 -385
50 -750 50 -439 0 -736 -24 -1145 -91 -1345 -220 -2625 -842 -3605 -1752 -196
-182 -309 -312 -361 -417 -99 -199 -99 -400 0 -600 150 -302 939 -960 1621
-1350 893 -512 1826 -807 2875 -911 220 -22 824 -30 1013 -15 1184 98 2660
668 4388 1694 l127 75 233 -157 c468 -313 818 -562 1259 -894 322 -243 472
-363 883 -705 175 -145 319 -263 321 -261 2 2 -51 365 -118 806 l-121 802 -80
67 c-44 37 -199 172 -345 299 -420 367 -678 577 -928 755 -56 40 -105 76 -107
80 -3 5 46 44 108 87 237 168 519 398 942 768 132 116 278 242 325 282 l86 71
68 454 c37 249 92 610 121 803 30 192 52 351 51 353 -2 1 -145 -115 -317 -259z
m-7019 -1340 c637 -83 1760 -488 3172 -1144 82 -38 146 -70 144 -73 -9 -9
-332 -159 -586 -272 -1174 -523 -2053 -830 -2680 -937 -217 -37 -638 -19 -998
43 -735 125 -1606 453 -2402 902 -184 104 -436 257 -444 270 -13 21 425 271
804 460 504 252 943 426 1418 562 577 165 1190 239 1572 189z"/>
</g>
</svg>
