<svg
    xmlns="http://www.w3.org/2000/svg"
    viewBox="0 0 24 24"
    id="vector">
    <path
        id="path"
        d="M 5 4 C 4.47 4 3.961 4.211 3.586 4.586 C 3.211 4.961 3 5.47 3 6 L 3 16.29 L 11.18 8.11 C 11.06 7.59 11 7.07 11 6.53 C 11 5.62 11.2 4.76 11.59 4 L 5 4 M 18 21 C 18.53 21 19.039 20.789 19.414 20.414 C 19.789 20.039 20 19.53 20 19 L 20 11.86 C 19.24 13 18.31 14.21 17.29 15.5 L 16.5 16.5 L 15.72 15.5 C 14.39 13.85 13.22 12.32 12.39 10.91 C 12.05 10.33 11.76 9.76 11.53 9.18 L 7.46 13.25 L 15.21 21 L 18 21 M 3 19 C 3 19.53 3.211 20.039 3.586 20.414 C 3.961 20.789 4.47 21 5 21 L 13.79 21 L 6.75 13.96 L 3 17.71 L 3 19 M 16.5 15 C 19.11 11.63 21 9.1 21 6.57 C 21 4.05 19 2 16.5 2 C 14 2 12 4.05 12 6.57 C 12 9.1 13.87 11.63 16.5 15 M 18.5 6.5 C 18.5 7.03 18.289 7.539 17.914 7.914 C 17.539 8.289 17.03 8.5 16.5 8.5 C 15.97 8.5 15.461 8.289 15.086 7.914 C 14.711 7.539 14.5 7.03 14.5 6.5 C 14.5 5.97 14.711 5.461 15.086 5.086 C 15.461 4.711 15.97 4.5 16.5 4.5 C 17.03 4.5 17.539 4.711 17.914 5.086 C 18.289 5.461 18.5 5.97 18.5 6.5 Z"
        fill="#757575"/>
</svg>
