<svg
    xmlns="http://www.w3.org/2000/svg"
    viewBox="0 0 300 300"
    id="vector">
    <path
        id="path"
        d="M 252.83 97.89 C 253.31 91.07 251.59 72.05 240.25 62.49 C 235.98 69.46 238.54 77.92 237.69 85.43 C 236.35 97.18 232.94 107.89 230.21 116.63 C 233.54 101.6 225.55 89.62 225.55 89.62 C 224.81 91.74 221.51 94.04 220.84 96.47 C 215.77 115.07 215.48 141.19 212.48 153.06 C 208.55 168.88 208.91 173.91 206.73 187.21 C 204.55 200.45 190.76 221.78 180.23 236.03 C 173.21 245.56 159.66 254.25 148.11 260.78 C 150.35 262.45 152.59 264.37 154.4 266.41 C 158.39 270.96 161.84 282.4 163.9 290.56 C 164.99 294.99 170.61 299.79 175.33 299.79 C 201.16 299.67 218.64 292.12 227.84 286.73 C 231.89 284.33 233.95 277.09 232.44 272.71 C 229.11 262.89 224.27 247.48 224.52 241.44 C 224.82 232.27 239.76 201.06 242.97 185.19 C 246.12 169.25 244.48 155.3 246.12 143.91 C 247.81 132.53 252.11 107.07 252.83 97.9 Z M 161.78 24.63 C 158.39 27.86 146.65 43.31 144.35 47.32 C 134.67 64.52 116.29 100.41 111.33 103.4 C 112.18 95.97 127.66 67.75 127.66 67.75 C 127.35 65.67 118.54 68.92 106.51 83.76 C 99.42 91.6 93.92 102.09 93.24 104.36 C 91.61 109.63 86.77 182.59 85.32 201.71 C 84.29 215.25 64.81 230.94 53.62 238.91 C 49.87 241.61 46.3 248.73 47.33 253.23 C 50.17 265.27 58.58 286.3 83.32 296.96 C 87.62 298.82 94.63 296.19 97.17 292.35 C 111.14 271.5 115.86 269.11 125.78 263.6 C 136.85 257.48 161.9 245.15 172.42 230.95 C 182.89 216.69 196.68 195.43 198.86 182.12 C 201.1 168.83 203.03 164.21 204.67 147.98 C 206.36 130.79 215.08 84.12 223.85 66.69 C 227.06 60.33 240.24 51.41 241.03 41.82 C 241.63 33.49 240.06 31.16 234.74 32.06 C 227.96 39.84 223.55 43.92 217.2 50.39 C 213.93 53.68 208.49 61.11 206.13 65.07 C 194.21 84.84 184.23 100.06 178.42 112.04 C 180.9 99.39 190.03 77.53 198.87 60.64 C 200.99 56.57 206.31 49.08 209.58 45.72 C 218.17 36.91 225.49 30.98 233.84 22.83 C 238.26 16.97 232.39 9.48 225.61 13.49 C 208.61 27.86 204.07 32.9 196.69 40.45 C 193.42 43.74 187.56 50.87 185.08 54.76 C 174.92 70.64 152.78 104.55 152.78 104.55 C 154.41 97 174.16 64.65 182.02 49.92 C 184.2 45.84 191.55 38.48 194.81 35.18 C 205.28 24.58 210.54 14.57 218.95 6.6 C 218.95 6.6 225.48 2.04 217.62 0.25 C 213.51 -0.65 192.27 20.44 179.33 32.9 C 176 36.13 169.95 43.02 167.41 46.92 C 157.07 63.03 137.59 91.24 134.08 98.25 C 135.53 91.61 154.87 60.33 162.43 44.64 C 172.47 28.36 188.19 12.04 196.51 5.04 C 194.88 3.07 190.47 0.67 185.08 3.37 C 181.57 5.11 172.61 14.27 161.78 24.64 Z"
        fill="#ffffff"
        stroke="#00000000"
        stroke-width="1"/>
</svg>
